<mxfile host="app.diagrams.net" agent="Mozilla/5.0 (Windows NT 10.0; Win64; x64) AppleWebKit/537.36 (KHTML, like Gecko) Chrome/128.0.0.0 Safari/537.36" version="24.7.16">
  <diagram name="Page-1" id="jhkyjNTGkV0eAKzGFeJy">
    <mxGraphModel dx="724" dy="392" grid="1" gridSize="10" guides="1" tooltips="1" connect="1" arrows="1" fold="1" page="1" pageScale="1" pageWidth="850" pageHeight="1100" math="0" shadow="0">
      <root>
        <mxCell id="0" />
        <mxCell id="1" parent="0" />
        <mxCell id="QwEDb-N4moY6QENmAf4X-5" style="edgeStyle=orthogonalEdgeStyle;rounded=0;orthogonalLoop=1;jettySize=auto;html=1;exitX=0.55;exitY=0.95;exitDx=0;exitDy=0;exitPerimeter=0;entryX=0.49;entryY=0.032;entryDx=0;entryDy=0;entryPerimeter=0;" edge="1" parent="1" source="QwEDb-N4moY6QENmAf4X-3" target="QwEDb-N4moY6QENmAf4X-6">
          <mxGeometry relative="1" as="geometry">
            <mxPoint x="310" y="260" as="targetPoint" />
            <Array as="points">
              <mxPoint x="230" y="176" />
              <mxPoint x="230" y="260" />
              <mxPoint x="312" y="260" />
            </Array>
          </mxGeometry>
        </mxCell>
        <mxCell id="QwEDb-N4moY6QENmAf4X-7" value="http://&lt;br&gt;WebClient.html" style="edgeLabel;html=1;align=center;verticalAlign=middle;resizable=0;points=[];" vertex="1" connectable="0" parent="QwEDb-N4moY6QENmAf4X-5">
          <mxGeometry x="0.55" relative="1" as="geometry">
            <mxPoint x="-54" y="-40" as="offset" />
          </mxGeometry>
        </mxCell>
        <mxCell id="QwEDb-N4moY6QENmAf4X-3" value="Website host" style="ellipse;shape=cloud;whiteSpace=wrap;html=1;" vertex="1" parent="1">
          <mxGeometry x="160" y="100" width="120" height="80" as="geometry" />
        </mxCell>
        <mxCell id="QwEDb-N4moY6QENmAf4X-4" value="User" style="shape=umlActor;verticalLabelPosition=bottom;verticalAlign=top;html=1;outlineConnect=0;" vertex="1" parent="1">
          <mxGeometry x="240" y="270" width="30" height="60" as="geometry" />
        </mxCell>
        <mxCell id="QwEDb-N4moY6QENmAf4X-6" value="" style="image;points=[];aspect=fixed;html=1;align=center;shadow=0;dashed=0;image=img/lib/allied_telesis/computer_and_terminals/Personal_Computer.svg;" vertex="1" parent="1">
          <mxGeometry x="280" y="270" width="55.6" height="75.35" as="geometry" />
        </mxCell>
        <mxCell id="QwEDb-N4moY6QENmAf4X-8" value="WebRTC co-ordination server&amp;nbsp;&lt;span style=&quot;background-color: initial;&quot;&gt;(signalling)&lt;/span&gt;" style="ellipse;shape=cloud;whiteSpace=wrap;html=1;" vertex="1" parent="1">
          <mxGeometry x="450" y="140" width="160" height="110" as="geometry" />
        </mxCell>
        <mxCell id="QwEDb-N4moY6QENmAf4X-9" value="" style="curved=1;endArrow=classic;html=1;rounded=0;entryX=0.16;entryY=0.55;entryDx=0;entryDy=0;entryPerimeter=0;" edge="1" parent="1" target="QwEDb-N4moY6QENmAf4X-8">
          <mxGeometry width="50" height="50" relative="1" as="geometry">
            <mxPoint x="340" y="290" as="sourcePoint" />
            <mxPoint x="390" y="240" as="targetPoint" />
            <Array as="points">
              <mxPoint x="390" y="290" />
              <mxPoint x="380" y="200" />
            </Array>
          </mxGeometry>
        </mxCell>
        <mxCell id="QwEDb-N4moY6QENmAf4X-10" value="User&#39;s relevant Info&lt;br&gt;+ WebRTC offer" style="edgeLabel;html=1;align=center;verticalAlign=middle;resizable=0;points=[];" vertex="1" connectable="0" parent="QwEDb-N4moY6QENmAf4X-9">
          <mxGeometry x="0.581" y="-11" relative="1" as="geometry">
            <mxPoint x="-41" y="9" as="offset" />
          </mxGeometry>
        </mxCell>
        <mxCell id="QwEDb-N4moY6QENmAf4X-11" value="" style="shape=image;html=1;verticalAlign=top;verticalLabelPosition=bottom;labelBackgroundColor=#ffffff;imageAspect=0;aspect=fixed;image=https://cdn2.iconfinder.com/data/icons/social-media-2198/64/chrome_social_media_network-128.png" vertex="1" parent="1">
          <mxGeometry x="291.61" y="284.61" width="32.38" height="32.38" as="geometry" />
        </mxCell>
        <mxCell id="QwEDb-N4moY6QENmAf4X-16" value="Peer" style="shape=umlActor;verticalLabelPosition=bottom;verticalAlign=top;html=1;outlineConnect=0;" vertex="1" parent="1">
          <mxGeometry x="710" y="262" width="30" height="60" as="geometry" />
        </mxCell>
        <mxCell id="QwEDb-N4moY6QENmAf4X-20" style="edgeStyle=orthogonalEdgeStyle;rounded=0;orthogonalLoop=1;jettySize=auto;html=1;exitX=0.875;exitY=0.5;exitDx=0;exitDy=0;exitPerimeter=0;curved=1;entryX=0.503;entryY=0.001;entryDx=0;entryDy=0;entryPerimeter=0;" edge="1" parent="1" source="QwEDb-N4moY6QENmAf4X-8">
          <mxGeometry relative="1" as="geometry">
            <mxPoint x="665.21" y="270.0616" as="targetPoint" />
          </mxGeometry>
        </mxCell>
        <mxCell id="QwEDb-N4moY6QENmAf4X-21" value="User&#39;s Offer" style="edgeLabel;html=1;align=center;verticalAlign=middle;resizable=0;points=[];" vertex="1" connectable="0" parent="QwEDb-N4moY6QENmAf4X-20">
          <mxGeometry x="0.32" y="-18" relative="1" as="geometry">
            <mxPoint as="offset" />
          </mxGeometry>
        </mxCell>
        <mxCell id="QwEDb-N4moY6QENmAf4X-23" style="edgeStyle=orthogonalEdgeStyle;rounded=0;orthogonalLoop=1;jettySize=auto;html=1;entryX=0.8;entryY=0.8;entryDx=0;entryDy=0;entryPerimeter=0;curved=1;" edge="1" parent="1" target="QwEDb-N4moY6QENmAf4X-8">
          <mxGeometry relative="1" as="geometry">
            <mxPoint x="630" y="300.8275862068966" as="sourcePoint" />
          </mxGeometry>
        </mxCell>
        <mxCell id="QwEDb-N4moY6QENmAf4X-29" value="Peer Accept" style="edgeLabel;html=1;align=center;verticalAlign=middle;resizable=0;points=[];" vertex="1" connectable="0" parent="QwEDb-N4moY6QENmAf4X-23">
          <mxGeometry x="-0.3824" y="-12" relative="1" as="geometry">
            <mxPoint as="offset" />
          </mxGeometry>
        </mxCell>
        <mxCell id="QwEDb-N4moY6QENmAf4X-27" style="edgeStyle=orthogonalEdgeStyle;rounded=0;orthogonalLoop=1;jettySize=auto;html=1;exitX=0.31;exitY=0.8;exitDx=0;exitDy=0;exitPerimeter=0;curved=1;" edge="1" parent="1" source="QwEDb-N4moY6QENmAf4X-8">
          <mxGeometry relative="1" as="geometry">
            <mxPoint x="330" y="303" as="targetPoint" />
            <Array as="points">
              <mxPoint x="500" y="303" />
            </Array>
          </mxGeometry>
        </mxCell>
        <mxCell id="QwEDb-N4moY6QENmAf4X-28" value="Peer Accept" style="edgeLabel;html=1;align=center;verticalAlign=middle;resizable=0;points=[];" vertex="1" connectable="0" parent="QwEDb-N4moY6QENmAf4X-27">
          <mxGeometry x="-0.0046" y="-18" relative="1" as="geometry">
            <mxPoint as="offset" />
          </mxGeometry>
        </mxCell>
        <mxCell id="QwEDb-N4moY6QENmAf4X-31" value="" style="endArrow=classic;startArrow=classic;html=1;rounded=0;entryX=0.018;entryY=0.854;entryDx=0;entryDy=0;entryPerimeter=0;exitX=1.042;exitY=0.715;exitDx=0;exitDy=0;exitPerimeter=0;" edge="1" parent="1" source="QwEDb-N4moY6QENmAf4X-6">
          <mxGeometry width="50" height="50" relative="1" as="geometry">
            <mxPoint x="370" y="320" as="sourcePoint" />
            <mxPoint x="631.26" y="322.6064000000001" as="targetPoint" />
          </mxGeometry>
        </mxCell>
        <mxCell id="QwEDb-N4moY6QENmAf4X-35" value="WebRTC connection attempt&lt;br&gt;(may be facilitated by ICE servers)" style="edgeLabel;html=1;align=center;verticalAlign=middle;resizable=0;points=[];" vertex="1" connectable="0" parent="QwEDb-N4moY6QENmAf4X-31">
          <mxGeometry x="-0.0285" y="2" relative="1" as="geometry">
            <mxPoint x="-1" y="1" as="offset" />
          </mxGeometry>
        </mxCell>
        <mxCell id="QwEDb-N4moY6QENmAf4X-32" value="" style="endArrow=none;html=1;rounded=0;entryX=0.16;entryY=0.55;entryDx=0;entryDy=0;entryPerimeter=0;exitX=0.875;exitY=0.5;exitDx=0;exitDy=0;exitPerimeter=0;dashed=1;dashPattern=1 1;" edge="1" parent="1" source="QwEDb-N4moY6QENmAf4X-8" target="QwEDb-N4moY6QENmAf4X-8">
          <mxGeometry width="50" height="50" relative="1" as="geometry">
            <mxPoint x="370" y="320" as="sourcePoint" />
            <mxPoint x="420" y="270" as="targetPoint" />
          </mxGeometry>
        </mxCell>
        <mxCell id="QwEDb-N4moY6QENmAf4X-33" value="" style="endArrow=none;dashed=1;html=1;rounded=0;entryX=0.31;entryY=0.8;entryDx=0;entryDy=0;entryPerimeter=0;exitX=0.8;exitY=0.8;exitDx=0;exitDy=0;exitPerimeter=0;" edge="1" parent="1" source="QwEDb-N4moY6QENmAf4X-8" target="QwEDb-N4moY6QENmAf4X-8">
          <mxGeometry width="50" height="50" relative="1" as="geometry">
            <mxPoint x="370" y="320" as="sourcePoint" />
            <mxPoint x="420" y="270" as="targetPoint" />
          </mxGeometry>
        </mxCell>
        <mxCell id="QwEDb-N4moY6QENmAf4X-38" value="" style="dashed=0;outlineConnect=0;html=1;align=center;labelPosition=center;verticalLabelPosition=bottom;verticalAlign=top;shape=mxgraph.weblogos.skype;fillColor=#2AACE2;strokeColor=none" vertex="1" parent="1">
          <mxGeometry x="220" y="150" width="20" height="20" as="geometry" />
        </mxCell>
        <mxCell id="QwEDb-N4moY6QENmAf4X-39" value="" style="shape=image;html=1;verticalAlign=top;verticalLabelPosition=bottom;labelBackgroundColor=#ffffff;imageAspect=0;aspect=fixed;image=https://cdn0.iconfinder.com/data/icons/social-media-and-logos-12/32/Google_Google-128.png" vertex="1" parent="1">
          <mxGeometry x="510" y="162" width="18" height="18" as="geometry" />
        </mxCell>
        <mxCell id="QwEDb-N4moY6QENmAf4X-40" value="" style="image;points=[];aspect=fixed;html=1;align=center;shadow=0;dashed=0;image=img/lib/allied_telesis/computer_and_terminals/Personal_Computer.svg;" vertex="1" parent="1">
          <mxGeometry x="630" y="268.55" width="56.67" height="76.8" as="geometry" />
        </mxCell>
        <mxCell id="QwEDb-N4moY6QENmAf4X-62" value="" style="image;html=1;image=img/lib/clip_art/networking/Router_128x128.png" vertex="1" parent="1">
          <mxGeometry x="370" y="322" width="20" height="30" as="geometry" />
        </mxCell>
        <mxCell id="QwEDb-N4moY6QENmAf4X-63" value="" style="html=1;strokeWidth=1;shadow=0;dashed=0;shape=mxgraph.ios7.misc.vpn;fillColor=#007AFF;strokeColor=none;buttonText=;strokeColor2=#222222;fontColor=#222222;fontSize=8;verticalLabelPosition=bottom;verticalAlign=top;align=center;sketch=0;" vertex="1" parent="1">
          <mxGeometry x="580" y="330.35" width="15" height="15" as="geometry" />
        </mxCell>
        <mxCell id="QwEDb-N4moY6QENmAf4X-64" value="" style="fontColor=#0066CC;verticalAlign=top;verticalLabelPosition=bottom;labelPosition=center;align=center;html=1;outlineConnect=0;fillColor=#CCCCCC;strokeColor=#6881B3;gradientColor=none;gradientDirection=north;strokeWidth=2;shape=mxgraph.networks.modem;" vertex="1" parent="1">
          <mxGeometry x="600" y="333.35" width="40" height="12" as="geometry" />
        </mxCell>
      </root>
    </mxGraphModel>
  </diagram>
</mxfile>
